<?xml version="1.0" standalone="no"?>
<!DOCTYPE svg PUBLIC "-//W3C//DTD SVG 20010904//EN"
 "http://www.w3.org/TR/2001/REC-SVG-20010904/DTD/svg10.dtd">
<svg version="1.0" xmlns="http://www.w3.org/2000/svg"
 width="1300.000000pt" height="800.000000pt" viewBox="0 0 1300.000000 800.000000"
 preserveAspectRatio="xMidYMid meet">

<g transform="translate(0.000000,800.000000) scale(0.100000,-0.100000)"
fill="#000000" stroke="none">
<path d="M0 4000 l0 -4000 6500 0 6500 0 0 4000 0 4000 -6500 0 -6500 0 0
-4000z m5595 3314 c107 -86 195 -158 195 -159 0 -2 -88 -76 -195 -165 -178
-147 -216 -172 -214 -137 0 7 75 73 165 147 l165 135 -606 3 c-527 2 -605 4
-605 17 0 13 78 15 605 17 l604 3 -169 135 c-129 103 -166 137 -158 147 6 7
12 13 14 13 3 0 92 -70 199 -156z m3192 -686 c23 -23 28 -38 31 -93 l4 -65
-1177 0 -1177 0 4 66 c4 60 7 70 36 95 l33 29 1109 -2 1110 -3 27 -27z m-4292
-30 c31 -29 36 -41 42 -95 l6 -63 -607 0 -606 0 0 44 c0 62 18 105 54 127 29
18 58 19 554 19 l522 0 35 -32z m4325 -353 c0 -243 -5 -266 -65 -291 -51 -21
-2169 -21 -2220 0 -60 25 -65 48 -65 291 l0 215 1175 0 1175 0 0 -215z m-4280
-217 c0 -246 -4 -417 -10 -440 -6 -20 -22 -46 -37 -58 -25 -20 -37 -20 -557
-20 -583 0 -559 -2 -591 60 -13 24 -15 95 -15 445 l0 415 605 0 605 0 0 -402z
m1003 -114 c61 -21 141 -93 174 -158 31 -61 43 -181 23 -242 -7 -22 -80 -143
-163 -271 l-151 -232 -150 227 c-82 125 -155 247 -164 270 -22 65 -12 183 20
247 25 49 93 121 136 144 77 41 182 47 275 15z m1831 -461 c103 -25 327 -154
326 -187 -1 -17 -118 -100 -197 -140 -130 -65 -276 -83 -412 -51 -80 19 -226
94 -287 148 l-47 41 46 42 c51 46 198 125 267 144 105 29 197 30 304 3z m969
-239 c18 -9 51 -34 74 -55 57 -52 89 -52 160 2 30 22 71 47 91 56 49 21 98 5
163 -52 66 -59 113 -60 175 -3 18 16 23 17 33 4 9 -11 6 -19 -19 -40 -50 -42
-101 -52 -155 -32 -24 10 -53 28 -62 40 -27 33 -65 56 -93 56 -25 0 -46 -12
-134 -75 -31 -23 -59 -35 -81 -35 -31 0 -45 8 -136 78 -51 39 -92 41 -142 8
-28 -20 -38 -22 -46 -12 -13 15 6 35 54 60 39 20 78 20 118 0z m1152 -427
c181 -54 317 -152 410 -297 105 -163 138 -352 93 -540 -5 -25 -29 -85 -53
-135 -77 -161 -218 -286 -394 -349 l-86 -31 -1464 -3 -1463 -2 -180 55 c-98
31 -189 55 -201 53 -19 -3 -22 -9 -22 -56 l0 -52 -1306 0 c-1258 0 -1309 1
-1381 19 -197 51 -361 183 -451 365 -55 111 -70 188 -65 331 7 193 61 318 198
456 113 114 245 180 400 199 36 4 1379 7 2985 6 2771 -1 2923 -2 2980 -19z
m-3065 -1337 c140 -44 258 -84 262 -88 18 -18 -7 -41 -110 -100 l-108 -62 -64
-110 c-65 -111 -81 -128 -99 -106 -16 19 -173 525 -166 536 3 6 12 10 19 10 7
0 127 -36 266 -80z m1482 -400 c69 -21 148 -66 148 -84 0 -25 -12 -24 -58 5
-73 46 -143 64 -257 63 -85 0 -113 -5 -187 -31 -48 -17 -110 -45 -139 -63
l-51 -34 45 -23 c81 -41 122 -122 115 -228 -2 -38 -7 -51 -20 -53 -16 -3 -18
5 -18 61 0 126 -40 183 -140 202 -33 6 -39 3 -112 -72 -101 -102 -159 -180
-208 -278 -52 -104 -80 -216 -80 -321 0 -96 9 -126 45 -150 22 -14 31 -15 68
-5 23 7 65 28 92 46 47 33 50 33 53 14 4 -24 -12 -38 -82 -74 -53 -27 -122
-33 -158 -14 -78 42 -76 274 5 468 37 92 126 224 207 311 33 36 56 66 51 68
-21 7 -169 -41 -256 -82 -202 -96 -431 -319 -585 -571 -45 -74 -124 -231 -152
-302 -12 -32 -20 -41 -32 -37 -22 8 -17 22 53 169 165 344 409 623 661 754 99
51 237 99 320 111 51 7 80 18 121 46 180 121 376 158 551 104z m-4501 -51 c34
-63 64 -92 137 -128 23 -12 42 -25 42 -29 0 -5 -22 -19 -50 -32 -63 -30 -100
-66 -136 -135 -16 -30 -31 -55 -34 -55 -3 0 -18 25 -34 55 -36 69 -73 105
-136 135 -28 13 -50 27 -50 32 0 4 19 17 43 29 72 36 102 65 136 128 18 34 36
61 41 61 5 0 23 -27 41 -61z m2039 -54 c193 -47 330 -170 330 -296 0 -126
-149 -251 -350 -295 -108 -24 -292 -21 -393 5 -269 70 -392 238 -294 401 55
93 181 164 346 195 92 18 267 13 361 -10z m3967 -375 c39 -24 53 -67 53 -172
l0 -78 -1125 0 -1125 0 0 90 c0 62 5 100 15 120 32 62 -30 59 1110 60 1013 0
1041 -1 1072 -20z m51 -596 l-3 -336 -33 -29 -32 -29 -1050 0 c-792 0 -1055 3
-1075 12 -53 24 -55 39 -55 393 l0 325 1125 0 1126 0 -3 -336z m-4946 167 l33
-29 3 -254 c2 -139 0 -268 -3 -287 -3 -18 -17 -44 -30 -57 -23 -23 -30 -24
-164 -24 l-139 0 -77 -82 -77 -83 -77 83 -76 82 -142 0 -141 0 -26 31 -26 31
0 280 0 280 29 29 29 29 426 0 426 0 32 -29z m1709 -787 c43 -29 84 -27 115 7
21 23 71 25 96 2 10 -9 18 -29 18 -45 0 -41 48 -88 89 -88 38 0 71 -31 71 -66
0 -14 -9 -37 -20 -51 -27 -35 -25 -80 6 -125 24 -34 25 -41 14 -68 -12 -29
-19 -33 -76 -45 -42 -8 -63 -33 -71 -81 -3 -22 -13 -47 -21 -56 -20 -24 -68
-23 -99 2 -35 27 -82 25 -123 -5 -41 -30 -50 -31 -84 -4 -17 14 -26 30 -26 49
0 44 -37 80 -88 87 -72 10 -90 55 -47 119 14 20 25 45 25 54 0 9 -11 34 -25
54 -14 20 -25 49 -25 63 0 33 26 63 56 63 55 0 94 39 94 95 0 31 33 65 62 65
12 0 39 -12 59 -26z"/>
<path d="M8560 6560 l0 -41 38 3 c35 3 37 5 37 38 0 33 -2 35 -37 38 l-38 3 0
-41z m65 0 c0 -20 -6 -26 -27 -28 -25 -3 -28 0 -28 28 0 28 3 31 28 28 21 -2
27 -8 27 -28z"/>
<path d="M8679 6578 c11 -15 11 -21 1 -33 -8 -9 -9 -15 -2 -15 6 0 14 5 17 10
5 8 12 7 23 -2 15 -11 15 -11 4 4 -9 11 -10 18 -2 23 5 3 10 11 10 17 0 7 -6
6 -15 -2 -12 -10 -18 -10 -32 1 -16 13 -17 12 -4 -3z"/>
<path d="M8478 6523 c12 -2 30 -2 40 0 9 3 -1 5 -23 4 -22 0 -30 -2 -17 -4z"/>
<path d="M4280 6525 c0 -33 2 -35 35 -35 33 0 35 2 35 35 0 33 -2 35 -35 35
-33 0 -35 -2 -35 -35z m60 0 c0 -20 -5 -25 -25 -25 -20 0 -25 5 -25 25 0 20 5
25 25 25 20 0 25 -5 25 -25z"/>
<path d="M4393 6543 c16 -16 16 -18 -1 -37 -17 -21 -17 -21 4 -3 19 16 22 16
34 2 7 -9 15 -13 18 -10 3 2 -1 11 -8 20 -10 12 -10 18 1 33 13 15 12 16 -4 3
-14 -11 -21 -11 -29 -3 -7 7 -17 12 -22 12 -6 0 -3 -8 7 -17z"/>
<path d="M4198 6493 c12 -2 30 -2 40 0 9 3 -1 5 -23 4 -22 0 -30 -2 -17 -4z"/>
<path d="M6883 6268 l-112 -112 -40 37 c-55 50 -101 48 -101 -5 0 -6 32 -44
72 -84 l72 -75 143 143 c141 141 159 168 131 196 -27 27 -55 11 -165 -100z
m137 74 c0 -14 -69 -76 -77 -69 -3 4 9 23 27 42 33 34 50 43 50 27z"/>
<path d="M7393 6258 l-112 -112 -40 37 c-43 38 -68 46 -89 25 -22 -22 -13 -39
60 -114 l72 -75 143 143 c147 146 165 176 124 198 -11 5 -26 10 -33 10 -7 0
-63 -50 -125 -112z m155 77 c2 -14 -37 -59 -133 -155 l-135 -135 -66 67 c-46
45 -65 71 -61 82 11 27 41 18 82 -24 l39 -40 117 116 c118 116 150 135 157 89z"/>
<path d="M7924 6258 l-113 -111 -41 36 c-43 39 -70 46 -90 22 -19 -22 -5 -45
70 -120 l70 -70 139 139 c77 77 142 148 145 158 5 22 -26 58 -51 58 -9 0 -67
-50 -129 -112z m154 77 c2 -14 -37 -59 -133 -155 l-136 -135 -64 66 c-45 46
-63 72 -59 83 10 27 36 18 81 -26 l43 -43 118 118 c114 114 144 133 150 92z"/>
<path d="M8453 6258 l-111 -111 -43 36 c-45 39 -67 45 -87 25 -22 -22 -13 -39
60 -114 l72 -75 143 143 c147 146 165 176 124 198 -11 5 -26 10 -33 10 -7 0
-63 -50 -125 -112z m154 86 c4 -11 -35 -57 -133 -155 l-139 -139 -63 63 c-45
45 -61 68 -56 80 10 28 35 20 81 -25 l43 -43 118 118 c64 64 123 117 130 117
7 0 15 -7 19 -16z"/>
<path d="M3883 6348 c-6 -7 -29 -48 -53 -91 -54 -100 -88 -133 -188 -185 -45
-24 -84 -47 -88 -53 -3 -6 -3 -21 0 -34 5 -18 29 -36 96 -70 106 -55 145 -95
200 -205 54 -108 68 -106 130 10 58 107 88 137 194 195 47 26 88 50 91 55 13
22 -21 58 -91 95 -109 57 -143 91 -203 199 -52 93 -68 109 -88 84z"/>
<path d="M5370 5763 c-102 -42 -140 -174 -73 -253 35 -42 74 -60 128 -60 120
0 195 114 147 222 -26 60 -71 91 -136 95 -28 1 -58 0 -66 -4z"/>
<path d="M7125 5436 c-86 -20 -158 -51 -234 -100 -97 -63 -99 -68 -54 -106 59
-48 210 -119 293 -136 87 -18 168 -13 263 16 75 23 184 82 235 126 l35 30 -37
30 c-139 115 -351 174 -501 140z m256 -38 c75 -42 101 -151 52 -217 -37 -48
-71 -66 -128 -66 -83 0 -143 54 -152 138 -14 121 120 206 228 145z"/>
<path d="M8566 4395 c-80 -28 -126 -85 -126 -155 0 -88 68 -148 203 -181 70
-17 87 -25 87 -40 0 -12 -10 -21 -26 -25 -42 -11 -138 2 -182 25 l-41 21 -26
-57 -26 -57 28 -23 c62 -54 242 -76 335 -40 112 43 150 155 82 245 -32 41 -70
61 -169 87 -92 24 -109 45 -50 65 39 13 104 6 148 -17 35 -17 40 -14 61 41 16
41 16 47 1 69 -32 49 -210 74 -299 42z"/>
<path d="M3380 4139 c0 -304 -6 -288 102 -289 l67 0 3 130 3 129 95 -115 c52
-63 105 -122 118 -130 15 -10 41 -14 75 -12 l52 3 3 250 c2 179 -1 256 -9 273
-11 20 -20 22 -90 22 l-78 0 -3 -126 -3 -125 -103 125 -103 126 -64 0 -65 0 0
-261z"/>
<path d="M3970 4135 c0 -229 2 -265 15 -265 8 0 15 -5 15 -10 0 -7 71 -9 208
-8 l207 3 3 58 c2 35 -1 57 -8 57 -5 0 -10 7 -10 15 0 13 -21 15 -125 15
l-125 0 0 30 0 30 115 0 115 0 0 55 c0 30 -4 55 -10 55 -5 0 -10 7 -10 15 0
12 -18 15 -105 15 l-105 0 0 30 0 30 130 0 130 0 0 53 c-1 89 3 87 -234 87
l-206 0 0 -265z"/>
<path d="M4463 4223 c3 -108 10 -194 18 -218 17 -50 77 -111 138 -138 57 -27
177 -29 232 -4 47 21 105 86 118 134 6 21 11 114 11 206 0 133 -3 171 -14 183
-10 9 -37 14 -85 14 l-71 0 0 -142 c0 -229 -13 -262 -98 -256 -67 4 -72 19
-72 211 0 124 -3 162 -14 173 -10 10 -38 14 -92 14 l-76 0 5 -177z"/>
<path d="M5050 4136 c0 -230 2 -266 15 -266 8 0 15 -5 15 -11 0 -18 356 -7
400 13 94 41 119 138 56 219 l-33 44 19 26 c11 14 22 43 25 65 4 32 -1 47 -26
85 -51 76 -76 83 -288 87 l-183 3 0 -265z m320 106 c0 -31 -22 -42 -82 -42
-58 0 -58 0 -58 30 l0 30 70 0 c61 0 70 -2 70 -18z m20 -207 c0 -33 -26 -45
-99 -45 l-61 0 0 35 0 35 80 0 c78 0 80 -1 80 -25z"/>
<path d="M5620 4135 c0 -229 2 -265 15 -265 8 0 15 -5 15 -10 0 -7 27 -10 73
-8 l72 3 3 68 3 67 30 0 c24 0 35 -9 62 -47 59 -86 71 -93 153 -93 41 0 74 3
74 8 0 4 -22 41 -50 82 l-50 75 30 23 c43 34 63 78 64 143 1 94 -68 182 -163
209 -20 5 -102 10 -183 10 l-148 0 0 -265z m314 99 c21 -56 -13 -94 -84 -94
l-50 0 0 55 0 55 64 0 c49 0 65 -4 70 -16z"/>
<path d="M6160 4237 c0 -203 12 -253 76 -314 51 -50 96 -71 169 -79 120 -14
238 57 263 159 17 66 15 357 -2 380 -11 13 -29 17 -90 17 l-76 0 0 -174 c0
-160 -2 -175 -21 -200 -16 -21 -29 -26 -62 -26 -72 0 -72 -2 -75 196 -3 132
-7 180 -17 190 -9 9 -39 14 -89 14 l-76 0 0 -163z"/>
<path d="M6690 4335 c0 -51 3 -65 15 -65 8 0 15 -4 15 -10 0 -6 28 -10 65 -10
l65 0 0 -190 c0 -162 2 -190 15 -190 8 0 15 -5 15 -10 0 -7 27 -10 73 -8 l72
3 3 197 2 197 78 3 77 3 3 49 c2 28 -2 60 -9 73 l-12 23 -239 0 -238 0 0 -65z"/>
<path d="M7336 4368 c-7 -18 -59 -136 -115 -262 -55 -126 -101 -231 -101 -232
0 -2 7 -4 15 -4 8 0 15 -4 15 -10 0 -6 31 -10 74 -10 l73 0 21 50 21 50 101 0
101 0 16 -37 c22 -54 38 -62 121 -63 70 0 73 1 67 21 -10 31 -213 487 -227
509 -11 17 -24 20 -90 20 l-78 0 -14 -32z m128 -221 c9 -23 16 -46 16 -50 0
-4 -18 -7 -41 -7 -29 0 -40 4 -36 13 2 6 10 29 18 50 7 20 16 37 20 37 3 0 14
-19 23 -43z"/>
<path d="M7760 4141 l0 -259 25 -16 c21 -14 53 -16 212 -14 l188 3 3 58 c2 35
-1 57 -8 57 -5 0 -10 7 -10 15 0 12 -19 15 -115 15 l-115 0 0 186 c0 147 -3
188 -14 200 -10 10 -38 14 -90 14 l-76 0 0 -259z"/>
<path d="M8220 4139 c0 -304 -6 -288 103 -289 l67 0 0 261 c0 212 -3 263 -14
275 -10 9 -37 14 -85 14 l-71 0 0 -261z"/>
<path d="M8940 4142 l0 -260 25 -16 c15 -10 46 -16 85 -16 l60 0 0 122 0 122
46 -74 c59 -96 81 -120 114 -120 32 0 44 13 98 105 l42 70 0 -102 c0 -85 3
-103 15 -103 8 0 15 -5 15 -10 0 -7 25 -10 68 -8 l67 3 3 250 c2 179 -1 256
-9 273 -11 19 -20 22 -78 22 l-66 0 -84 -144 -85 -144 -87 142 -87 141 -71 3
-71 3 0 -259z"/>
<path d="M6187 3833 c-11 -11 -8 -163 3 -163 6 0 10 35 10 85 0 85 -1 91 -13
78z"/>
<path d="M5957 3723 c-8 -12 110 -129 120 -120 4 4 -20 35 -54 68 -33 34 -63
57 -66 52z"/>
<path d="M5845 3490 c-4 -6 25 -10 79 -10 51 0 86 4 86 10 0 6 -33 10 -79 10
-44 0 -83 -4 -86 -10z"/>
<path d="M5115 2933 c-16 -2 -63 -13 -103 -25 -79 -23 -79 -32 0 -43 43 -6 52
-4 85 23 21 16 47 34 58 40 21 12 16 12 -40 5z"/>
<path d="M5260 2896 l0 -46 67 0 c64 0 65 1 49 19 -9 10 -39 30 -66 45 l-50
27 0 -45z"/>
<path d="M5381 2900 c42 -31 60 -39 82 -35 15 3 42 8 60 11 l32 7 -40 14 c-22
8 -62 18 -90 24 -27 5 -61 12 -74 15 -18 4 -10 -6 30 -36z"/>
<path d="M5160 2899 c-70 -48 -69 -49 3 -49 l67 0 0 40 c0 49 -10 50 -70 9z"/>
<path d="M4838 2826 c-52 -40 -80 -75 -96 -123 l-11 -33 119 0 118 0 7 33 c4
17 18 52 31 76 13 24 24 47 24 51 0 4 -19 10 -42 13 -24 4 -57 9 -73 12 -24 5
-39 0 -77 -29z"/>
<path d="M5504 2847 l-51 -10 30 -48 c16 -26 32 -63 36 -81 l7 -33 112 -3
c103 -2 112 -1 112 16 0 32 -56 109 -103 141 -48 33 -60 34 -143 18z"/>
<path d="M5041 2785 c-27 -43 -48 -101 -39 -110 3 -3 186 -8 216 -6 8 1 12 23
12 76 l0 75 -49 0 c-27 0 -62 3 -79 6 -28 6 -33 2 -61 -41z"/>
<path d="M5313 2823 l-53 -4 0 -75 0 -74 120 0 120 0 -6 28 c-3 15 -19 50 -34
77 -30 55 -34 56 -147 48z"/>
<path d="M4740 2608 c5 -17 21 -48 36 -70 29 -42 111 -101 130 -94 7 3 39 10
72 16 l60 12 -24 35 c-22 33 -44 92 -44 121 0 9 -31 12 -119 12 l-120 0 9 -32z"/>
<path d="M5003 2603 c7 -38 56 -127 70 -125 4 1 41 2 82 2 l75 0 0 80 0 80
-116 0 -117 0 6 -37z"/>
<path d="M5260 2561 l0 -79 78 -4 c58 -3 81 0 96 12 22 19 51 74 61 118 l7 32
-121 0 -121 0 0 -79z"/>
<path d="M5527 2633 c-4 -3 -7 -16 -7 -28 0 -12 -13 -48 -29 -79 -18 -37 -25
-59 -17 -61 6 -2 35 -8 64 -14 62 -13 74 -8 139 52 48 44 73 84 73 117 0 19
-6 20 -108 20 -60 0 -112 -3 -115 -7z"/>
<path d="M5135 2451 l-40 -6 60 -37 c33 -21 63 -38 67 -38 4 0 8 20 8 45 0 50
-1 50 -95 36z"/>
<path d="M5260 2415 c0 -30 4 -45 13 -45 13 0 121 70 115 74 -1 2 -31 6 -65 9
l-63 7 0 -45z"/>
<path d="M4965 2431 c-28 -6 -29 -8 -10 -18 29 -15 159 -46 180 -42 13 3 6 12
-28 37 -46 33 -76 38 -142 23z"/>
<path d="M5380 2403 l-45 -36 51 7 c64 8 161 40 148 49 -6 3 -32 8 -60 11 -45
5 -52 3 -94 -31z"/>
<path d="M9164 2486 c-3 -8 -4 -31 -2 -52 l3 -39 50 0 50 0 3 53 3 52 -51 0
c-34 0 -52 -5 -56 -14z m86 -41 c0 -33 -2 -35 -35 -35 -33 0 -35 2 -35 35 0
33 2 35 35 35 33 0 35 -2 35 -35z"/>
<path d="M9328 2467 l22 -24 -20 -18 c-11 -10 -20 -23 -20 -28 0 -6 11 0 25
13 l25 23 25 -23 c14 -13 25 -19 25 -13 0 5 -9 18 -20 28 l-20 18 22 24 c25
26 14 32 -14 6 -17 -15 -19 -15 -36 0 -28 26 -39 20 -14 -6z"/>
<path d="M9025 2400 c3 -5 26 -10 51 -10 24 0 44 5 44 10 0 6 -23 10 -51 10
-31 0 -48 -4 -44 -10z"/>
<path d="M7583 2146 c-60 -27 -86 -100 -63 -182 10 -34 29 -63 69 -104 54 -55
158 -130 181 -130 18 0 129 79 172 122 49 49 68 93 68 155 0 53 -18 88 -65
125 -40 31 -121 32 -162 2 l-29 -22 -28 20 c-35 26 -102 32 -143 14z"/>
<path d="M8173 2146 c-65 -29 -92 -122 -59 -201 21 -49 87 -117 167 -172 l70
-47 47 24 c64 35 162 127 183 175 38 83 16 161 -61 213 -43 29 -106 26 -151
-7 l-29 -22 -28 21 c-37 28 -98 34 -139 16z"/>
<path d="M8743 2141 c-18 -11 -39 -32 -49 -46 -23 -35 -21 -112 4 -162 25 -48
132 -148 194 -182 l45 -24 48 28 c76 45 161 130 181 180 29 78 8 149 -60 199
-39 30 -114 29 -155 -2 l-31 -23 -29 22 c-42 31 -108 35 -148 10z m104 -2 c15
-6 38 -20 51 -31 l22 -21 23 21 c80 75 194 33 205 -76 3 -36 -1 -59 -16 -89
-24 -45 -104 -122 -169 -160 l-43 -25 -47 28 c-63 36 -147 117 -167 159 -37
77 -11 161 58 191 38 16 47 17 83 3z"/>
<path d="M3774 1882 c-42 -27 -35 -95 11 -112 27 -10 62 1 77 24 13 19 9 64
-8 80 -16 17 -61 21 -80 8z"/>
<path d="M4010 1870 c-33 -33 -20 -83 26 -100 43 -17 84 13 84 61 0 54 -70 79
-110 39z"/>
<path d="M4254 1864 c-22 -33 -9 -74 30 -93 25 -12 31 -11 55 6 53 40 31 113
-35 113 -25 0 -38 -7 -50 -26z"/>
</g>
</svg>
